<?xml version="1.0" standalone="no"?>
<!DOCTYPE svg PUBLIC "-//W3C//DTD SVG 20010904//EN"
 "http://www.w3.org/TR/2001/REC-SVG-20010904/DTD/svg10.dtd">
<svg version="1.0" xmlns="http://www.w3.org/2000/svg"
 width="200.000000pt" height="200.000000pt" viewBox="0 0 200.000000 200.000000"
 preserveAspectRatio="xMidYMid meet">
<metadata>
Created by potrace 1.11, written by Peter Selinger 2001-2013
</metadata>
<g transform="translate(0.000000,200.000000) scale(0.100000,-0.100000)"
fill="#000000" stroke="none">
<path d="M760 1589 c-47 -5 -107 -15 -135 -22 l-50 -12 -3 -232 c-2 -213 -4
-233 -20 -233 -9 0 -91 9 -181 20 -91 11 -166 18 -169 16 -2 -2 7 -21 20 -43
14 -21 28 -43 32 -50 4 -8 -17 -24 -65 -48 -39 -20 -69 -38 -68 -40 2 -1 56
-8 119 -14 63 -7 132 -14 152 -17 40 -6 40 -6 22 -75 -3 -11 3 -18 18 -22 13
-3 75 -17 138 -32 l115 -26 68 -75 c41 -44 106 -99 160 -134 l90 -60 46 27
c82 46 138 92 209 168 l69 74 114 27 c63 14 124 28 137 31 15 4 21 11 18 22
-20 67 -20 69 16 75 18 3 87 11 153 17 66 6 122 12 124 14 1 2 -29 20 -69 40
-80 40 -77 27 -24 110 9 14 14 28 12 31 -3 2 -81 -4 -174 -16 -93 -11 -175
-20 -181 -20 -10 0 -13 56 -15 232 l-3 233 -90 17 c-108 22 -456 32 -585 17z"/>
</g>
</svg>
